<svg version="1.1" id="Layer_1" xmlns="http://www.w3.org/2000/svg" xmlns:xlink="http://www.w3.org/1999/xlink" x="0px" y="0px"
	 width="100%" viewBox="0 0 826 528" enable-background="new 0 0 826 528" xml:space="preserve">
<path fill="#000000" opacity="1.000000" stroke="none" 
	d="
M481.000000,529.000000 
	C320.666656,529.000000 160.833328,529.000000 1.000000,529.000000 
	C1.000000,353.000000 1.000000,177.000000 1.000000,1.000000 
	C276.333344,1.000000 551.666687,1.000000 827.000000,1.000000 
	C827.000000,177.000000 827.000000,353.000000 827.000000,529.000000 
	C711.833313,529.000000 596.666687,529.000000 481.000000,529.000000 
M518.318115,135.688980 
	C493.359741,135.688980 468.401367,135.688980 443.360687,135.688980 
	C443.360687,198.790573 443.360687,261.379913 443.360687,324.242310 
	C457.466766,324.242310 471.373596,324.242310 485.848511,324.242310 
	C485.848511,303.618225 485.848511,283.247162 485.848511,262.705872 
	C494.899750,262.705872 503.391541,262.927979 511.866699,262.647125 
	C521.497498,262.327972 531.237915,262.339172 540.710388,260.826874 
	C561.800110,257.459869 578.623596,247.463211 586.641602,226.551559 
	C592.695496,210.762543 593.303711,194.412933 589.306213,177.961838 
	C584.825745,159.523041 573.265686,147.537659 555.606323,141.061340 
	C543.846252,136.748535 531.659180,135.608887 518.318115,135.688980 
M243.734192,215.878143 
	C256.936737,252.050674 270.139313,288.223206 283.247894,324.138245 
	C296.985260,324.138245 310.393982,324.138245 324.285187,324.138245 
	C301.239014,261.118500 278.336609,198.491852 255.429123,135.851349 
	C241.786011,135.851349 228.380600,135.851349 214.437958,135.851349 
	C224.178024,162.543991 233.780731,188.860184 243.734192,215.878143 
M387.432922,135.610046 
	C378.273590,135.610031 369.101105,135.898224 359.960754,135.481644 
	C355.743195,135.289429 354.291870,136.884506 353.094330,140.580399 
	C341.212555,177.250031 329.089661,213.841660 317.261505,250.528381 
	C316.194336,253.838242 316.027039,257.773468 316.609131,261.221191 
	C319.010162,275.441895 327.404236,285.537323 339.795929,293.092346 
	C359.187286,240.661316 378.514160,188.404663 398.039948,135.610199 
	C394.338165,135.610199 391.369476,135.610199 387.432922,135.610046 
z"/>
<path fill="#FDFDFD" opacity="1.000000" stroke="none" 
	d="
M518.794678,135.688995 
	C531.659180,135.608887 543.846252,136.748535 555.606323,141.061340 
	C573.265686,147.537659 584.825745,159.523041 589.306213,177.961838 
	C593.303711,194.412933 592.695496,210.762543 586.641602,226.551559 
	C578.623596,247.463211 561.800110,257.459869 540.710388,260.826874 
	C531.237915,262.339172 521.497498,262.327972 511.866699,262.647125 
	C503.391541,262.927979 494.899750,262.705872 485.848511,262.705872 
	C485.848511,283.247162 485.848511,303.618225 485.848511,324.242310 
	C471.373596,324.242310 457.466766,324.242310 443.360687,324.242310 
	C443.360687,261.379913 443.360687,198.790573 443.360687,135.688980 
	C468.401367,135.688980 493.359741,135.688980 518.794678,135.688995 
M545.973206,218.425842 
	C552.963135,209.288605 553.127014,199.074081 550.499878,188.521225 
	C548.537598,180.638824 543.448975,175.463425 535.726746,173.099777 
	C519.295471,168.070450 502.463959,171.223755 485.551453,170.184494 
	C485.551453,189.765152 485.551453,208.664978 485.551453,228.545807 
	C500.300812,228.032181 514.879089,227.755432 529.424255,226.909714 
	C535.655396,226.547409 541.240601,223.854660 545.973206,218.425842 
z"/>
<path fill="#FDFDFD" opacity="1.000000" stroke="none" 
	d="
M243.558807,215.527252 
	C233.780731,188.860184 224.178024,162.543991 214.437958,135.851349 
	C228.380600,135.851349 241.786011,135.851349 255.429123,135.851349 
	C278.336609,198.491852 301.239014,261.118500 324.285187,324.138245 
	C310.393982,324.138245 296.985260,324.138245 283.247894,324.138245 
	C270.139313,288.223206 256.936737,252.050674 243.558807,215.527252 
z"/>
<path fill="#65FAEF" opacity="1.000000" stroke="none" 
	d="
M387.916870,135.610123 
	C391.369476,135.610199 394.338165,135.610199 398.039948,135.610199 
	C378.514160,188.404663 359.187286,240.661316 339.795929,293.092346 
	C327.404236,285.537323 319.010162,275.441895 316.609131,261.221191 
	C316.027039,257.773468 316.194336,253.838242 317.261505,250.528381 
	C329.089661,213.841660 341.212555,177.250031 353.094330,140.580399 
	C354.291870,136.884506 355.743195,135.289429 359.960754,135.481644 
	C369.101105,135.898224 378.273590,135.610031 387.916870,135.610123 
z"/>
<path fill="#030303" opacity="1.000000" stroke="none" 
	d="
M545.721558,218.684967 
	C541.240601,223.854660 535.655396,226.547409 529.424255,226.909714 
	C514.879089,227.755432 500.300812,228.032181 485.551453,228.545807 
	C485.551453,208.664978 485.551453,189.765152 485.551453,170.184494 
	C502.463959,171.223755 519.295471,168.070450 535.726746,173.099777 
	C543.448975,175.463425 548.537598,180.638824 550.499878,188.521225 
	C553.127014,199.074081 552.963135,209.288605 545.721558,218.684967 
z"/>
</svg>